<?xml version="1.0" standalone="no"?>
<!DOCTYPE svg PUBLIC "-//W3C//DTD SVG 20010904//EN"
 "http://www.w3.org/TR/2001/REC-SVG-20010904/DTD/svg10.dtd">
<svg version="1.0" xmlns="http://www.w3.org/2000/svg"
 width="512.000000pt" height="512.000000pt" viewBox="0 0 512.000000 512.000000"
 preserveAspectRatio="xMidYMid meet">
<metadata>
Created by potrace 1.11, written by Peter Selinger 2001-2013
</metadata>
<g transform="translate(0.000000,512.000000) scale(0.100000,-0.100000)"
fill="#000000" stroke="none">
<path d="M380 5104 c-92 -25 -162 -65 -230 -134 -37 -37 -77 -89 -92 -120 -60
-123 -57 27 -57 -2285 -1 -2302 -4 -2174 55 -2292 36 -73 142 -179 214 -215
120 -60 -24 -57 2282 -57 1532 -1 2132 2 2170 10 184 39 341 194 384 377 11
47 14 439 14 2173 0 2312 4 2163 -57 2289 -33 70 -140 176 -213 213 -120 59
25 56 -2290 56 -1838 0 -2132 -2 -2180 -15z"/>
</g>
</svg>
